<?xml version="1.0" encoding="UTF-8" standalone="no"?>
<!-- Created with Inkscape (http://www.inkscape.org/) -->

<svg
   xmlns:dc="http://purl.org/dc/elements/1.1/"
   xmlns:cc="http://creativecommons.org/ns#"
   xmlns:rdf="http://www.w3.org/1999/02/22-rdf-syntax-ns#"
   xmlns:svg="http://www.w3.org/2000/svg"
   xmlns="http://www.w3.org/2000/svg"
   xmlns:sodipodi="http://sodipodi.sourceforge.net/DTD/sodipodi-0.dtd"
   xmlns:inkscape="http://www.inkscape.org/namespaces/inkscape"
   width="744.09448819"
   height="1052.3622047"
   id="svg2"
   version="1.1"
   inkscape:version="0.48.5 r10040"
   sodipodi:docname="boxes.svg">
  <defs
     id="defs4" />
  <sodipodi:namedview
     id="base"
     pagecolor="#ffffff"
     bordercolor="#666666"
     borderopacity="1.0"
     inkscape:pageopacity="0.0"
     inkscape:pageshadow="2"
     inkscape:zoom="1.979899"
     inkscape:cx="357.4475"
     inkscape:cy="720.90949"
     inkscape:document-units="px"
     inkscape:current-layer="layer1"
     showgrid="false"
     inkscape:window-width="1438"
     inkscape:window-height="947"
     inkscape:window-x="25"
     inkscape:window-y="41"
     inkscape:window-maximized="0" />
  <metadata
     id="metadata7">
    <rdf:RDF>
      <cc:Work
         rdf:about="">
        <dc:format>image/svg+xml</dc:format>
        <dc:type
           rdf:resource="http://purl.org/dc/dcmitype/StillImage" />
        <dc:title></dc:title>
      </cc:Work>
    </rdf:RDF>
  </metadata>
  <g
     inkscape:label="Layer 1"
     inkscape:groupmode="layer"
     id="layer1">
    <path
       style="fill:#000000;fill-opacity:1;stroke:#000000;stroke-opacity:1"
       id="path4447"
       d="m 48.032404,209.53833 c 1.08909,0.0674 2.20269,0.0869 3.3005,0.12067 0.44737,-0.003 0.89477,-0.0154 1.34212,-0.01 0.82111,0.0107 1.64085,0.0763 2.46194,0.0886 1.858,0.0278 3.71807,0.0208 5.57639,0.0409 0.75805,0.001 1.51642,-0.0178 2.27414,0.004 0.5757,0.0169 1.14842,0.0969 1.72415,0.11268 0.84499,0.0231 1.69063,-6.5e-4 2.53593,0.004 2.5506,0.0133 5.101,0.052 7.65125,0.094 5.59656,0.049 11.19464,0.13217 16.79151,0.0914 0.55662,-0.002 6.48672,-0.0197 6.9843,-0.0296 1.03919,-0.0205 2.077056,-0.0868 3.116116,-0.11335 3.62892,-0.0926 7.26094,-0.14494 10.89056,-0.20793 2.36659,0.0321 4.72682,-0.17524 7.09139,-0.21107 1.4258,-0.0216 2.85203,0.0274 4.27787,0.009 6.17942,-0.0802 0.84315,-0.11305 6.69163,-0.25962 1.31093,-0.0329 2.62262,-0.0193 3.93393,-0.0289 4.74215,-0.0302 9.48422,-0.0786 14.22471,-0.21396 0.98327,-0.0281 1.96587,-0.0816 2.94942,-0.0965 1.1357,-0.0172 2.27166,2.2e-4 3.40749,3.2e-4 2.78979,-0.0965 5.58147,-0.0878 8.37219,-0.12863 0.81,-0.0119 1.61969,-0.0453 2.42976,-0.0484 5.47252,-0.0211 0.31415,0.097 4.84147,-0.03 0,0 1.34911,0.21338 1.34911,0.21338 l 0,0 c -3.84168,0.14996 0.0325,0.0355 -4.85325,0.0274 -3.59505,-0.006 -7.19236,0.12693 -10.78662,0.17831 -3.24958,0.005 -6.49566,0.0652 -9.74427,0.14818 -1.07073,0.0274 -2.1407,0.0848 -3.21166,0.10091 -1.30736,0.0196 -2.61519,-0.015 -3.92253,0.006 -1.11368,0.018 -2.22642,0.0743 -3.33964,0.11144 -12.23286,0.32327 6.55893,-0.13558 -7.8377,0.0684 -1.11458,0.0158 -2.22703,0.1069 -3.34141,0.13316 -3.78988,0.0893 -7.58385,0.0435 -11.37266,0.20148 -1.1552,0.0226 -6.09274,0.11577 -7.29153,0.15344 -1.0414,0.0327 -2.08127,0.11228 -3.12304,0.12997 -1.30299,0.0221 -2.60639,-0.0208 -3.909526,-0.0106 -2.12955,0.0166 -4.25793,0.11559 -6.38764,0.12418 -11.78145,-0.0925 6.11116,0.0293 -8.10248,0.007 -3.9218,-0.006 -7.844,-0.14396 -11.76602,-0.0682 -1.60786,-0.0373 -3.21537,-0.0893 -4.82336,-0.12056 -3.06057,-0.0595 -6.12199,0.0618 -9.18017,-0.1238 -0.70209,-0.002 -1.40418,-0.004 -2.10627,-0.006 -0.44056,-0.0333 -0.87998,-0.0893 -1.32166,-0.0998 -0.62828,-0.0148 -1.25677,0.0196 -1.88521,0.0241 -1.4178,0.01 -2.83009,-0.073 -4.24723,-0.0109 -0.32241,-0.008 -0.64483,-0.0161 -0.96725,-0.0241 -0.16103,-0.0242 -0.32034,-0.0675 -0.48311,-0.0727 -0.31649,-0.0102 -0.63307,0.0176 -0.94961,0.0264 -0.0611,-0.0215 -0.11892,-0.0566 -0.18317,-0.0645 -0.63304,-0.0783 -0.22427,0.0508 -0.47671,-0.0346 0,0 1.39585,-0.20684 1.39585,-0.20684 z"
       inkscape:connector-curvature="0" />
    <path
       style="fill:#000000;fill-opacity:1;stroke:#000000;stroke-opacity:1"
       id="path4451"
       d="m 45.870351,218.14552 c 0.24811,-0.20669 0.20783,0.0226 0.34302,0.0292 0.12344,0.006 0.24764,-0.0246 0.37057,-0.0118 0.0167,0.002 -0.008,0.0327 -0.0115,0.049 0.11029,0.002 0.22058,0.003 0.33087,0.005 0.74867,0.0973 -0.62203,-0.0721 0.65588,0.0334 0.079,0.007 0.15316,0.0477 0.23236,0.0503 0.2581,0.009 0.51668,-0.0304 0.77455,-0.0166 0.10335,0.006 0.20097,0.0496 0.30145,0.0744 0.32106,-0.004 0.64212,-0.008 0.96318,-0.0119 0.72461,0.0211 1.4502,-0.0318 2.17477,-0.009 0.27128,0.009 0.54011,0.062 0.81148,0.067 0.50533,0.009 1.01064,-0.0232 1.51605,-0.0242 0.87543,-0.002 1.91493,0.0337 2.78722,0.0578 1.77333,0.0397 3.54866,0.0427 5.32148,0.10361 0.57326,0.0197 1.14532,0.0683 1.71865,0.0856 2.83469,0.041 1.4413,0.008 4.18024,0.0975 2.31872,0.008 4.63709,0.0872 6.95544,0.11025 0.88351,0.009 1.76723,-0.0166 2.65068,-0.002 1.46459,0.024 2.92768,0.10563 4.39172,0.15263 0.74233,0.025 1.48429,0.0674 2.227,0.0751 6.17282,0.0639 -0.17671,-0.11502 5.52686,0.008 2.27576,0.0491 4.5522,0.1316 6.8278,0.19318 2.14123,0.0519 4.285429,0.0483 6.425789,0.13708 0.53454,0.0222 1.06735,0.0794 1.60205,0.0974 0.4188,0.014 3.4396,0.0333 3.88979,0.0366 0.64229,-7.9e-4 1.28487,-0.022 1.92686,-0.002 0.40852,0.0125 0.81378,0.082 1.22216,0.0985 2.06473,0.0834 4.13293,0.0191 6.19767,0.10703 0.57023,-0.005 1.14073,-0.0329 1.7107,-0.015 0.31468,0.01 0.6249,0.0832 0.93938,0.0983 1.61885,0.0778 1.36855,-0.0427 3.0825,-0.0104 0.33614,0.006 0.67049,0.0506 1.00573,0.076 0.51992,-0.002 1.03985,-0.004 1.55977,-0.005 0.49219,0.004 0.98437,0.009 1.47656,0.0131 0.29844,0.0362 0.59474,0.10323 0.89531,0.10864 0.65942,0.0119 1.31831,-0.0673 1.97775,-0.0569 0.32598,0.005 0.64666,0.096 0.9726,0.10322 1.24092,0.0273 2.48199,-0.0482 3.72309,-0.066 0.34572,0.0316 0.69016,0.0837 1.03714,0.0949 0.56646,0.0181 1.13354,-0.0147 1.70024,-0.007 0.44692,0.006 0.89336,0.0317 1.34003,0.0476 0.59877,-0.009 1.19748,-0.0311 1.79629,-0.0262 0.90271,0.007 1.80448,0.0618 2.70702,0.0807 1.84496,0.12051 3.6952,0.0171 5.5408,0.0721 0.32118,0.01 0.64096,0.0465 0.96144,0.0697 0.43459,0.003 0.86918,0.006 1.30377,0.01 2.09061,0.15821 -0.52328,-0.0156 2.23091,0.0616 0.27986,0.008 0.55739,0.059 0.83725,0.067 1.18118,0.034 2.37171,0.005 3.55391,0.0139 1.94285,0.0735 3.88579,0.0897 5.82945,0.12866 1.71984,0.0588 3.43638,0.12539 5.15743,0.12502 0.78717,0.17635 1.59693,0.0656 2.39347,0.2048 0,0 -1.14179,0.17383 -1.14179,0.17383 l 0,0 c -0.3737,0.004 -1.26808,0.0303 -1.69067,-0.0232 -0.10652,-0.0135 -0.20003,-0.0896 -0.30715,-0.097 -0.32671,-0.0226 -0.65497,0.005 -0.98245,0.008 -0.31228,-8.7e-4 -0.62484,0.0107 -0.93683,-0.003 -0.42262,-0.018 -0.83813,-0.1346 -1.26485,-0.10283 -0.63124,-0.0204 -1.13215,0.005 -1.75855,-0.0402 -0.19286,-0.0139 -0.38368,-0.0483 -0.57552,-0.0724 -3.28405,0.0878 0.27096,0.0284 -2.03322,-0.0125 -1.34409,-0.0238 -2.69396,0.0453 -4.03489,-0.0794 -4.60303,0.13742 0.47734,0.0488 -2.21374,-0.0298 -0.44171,-0.0129 -0.88383,0.0226 -1.32563,0.0133 -0.29505,-0.006 -0.58832,-0.051 -0.88329,-0.0599 -0.79406,-0.024 -1.5895,0.0229 -2.38294,-0.038 -0.58264,-0.0278 -1.64162,-0.0836 -2.20801,-0.0878 -0.77984,-0.006 -2.24218,0.0444 -3.03371,0.0199 -0.33874,-0.0105 -0.67574,-0.0529 -1.01361,-0.0794 -0.44988,-0.0115 -0.89977,-0.023 -1.34965,-0.0345 -3.08104,-0.0301 -6.16103,-0.0763 -9.24225,-0.0852 -2.8044,-0.13825 -5.62195,0.0511 -8.42089,-0.20109 -0.97699,-0.0125 -1.9542,-5.4e-4 -2.93118,-0.0139 -0.4081,-0.006 -0.8158,-0.0278 -1.2237,-0.0417 -0.34024,-0.0262 -0.67955,-0.0717 -1.02074,-0.0786 -1.05303,-0.0215 -2.10682,0.0759 -3.15976,-0.003 -0.50769,-0.006 -1.01539,-0.0118 -1.52309,-0.0177 -0.47947,-0.0134 -0.9588,-0.033 -1.4384,-0.0401 -0.5697,-0.008 -1.13981,0.0117 -1.70929,-0.007 -0.41454,-0.0133 -0.82675,-0.0707 -1.24114,-0.0879 -1.4573,-0.0603 -2.27249,-0.0217 -3.78748,0.003 -2.32847,-0.0564 -4.65537,-0.23628 -6.98422,-0.26531 -0.841909,-0.0105 -1.684159,0.0341 -2.525909,0.014 -0.59624,-0.0142 -1.19027,-0.078 -1.78541,-0.117 -4.99596,-0.0706 -9.99077,-0.24984 -14.98832,-0.21145 -3.05363,-0.0896 -6.11153,-0.19498 -9.16639,-0.22564 -0.84811,-0.009 -1.69654,0.0175 -2.54447,-0.002 -0.62356,-0.0144 -1.24568,-0.0665 -1.86853,-0.0997 -2.14399,-0.0722 -4.28515,-0.0558 -6.42936,-0.10103 -5.5512,-0.11699 1.61568,-0.002 -3.18199,-0.1531 -0.57739,-0.0182 -1.15534,-0.008 -1.73301,-0.0123 -2.1424,-0.0146 -1.0676,-0.0184 -3.22442,0.0118 -0.71359,-0.004 -1.42597,-0.07 -2.13958,-0.073 -0.42795,-0.002 -0.8557,0.0308 -1.28362,0.0255 -0.22805,-0.003 -0.45492,-0.0334 -0.68237,-0.0501 -1.0727,0.004 -2.13752,-0.0151 -3.20591,-0.0974 -0.17499,-0.1792 0.0932,0.0711 -0.51888,-0.0307 -0.061,-0.0102 0.23398,-0.0593 0.17272,-0.068 -0.75783,-0.10779 -0.45029,0.14297 -0.21429,-0.0281 0.0385,-0.0279 -0.0951,2.1e-4 -0.1427,3.2e-4 0,0 1.23446,-0.1776 1.23446,-0.1776 z"
       inkscape:connector-curvature="0" />
    <g
       id="g4542"
       transform="translate(-124.24876,-75.761441)">
      <g
         id="g4502">
        <path
           style="fill:#000000;fill-opacity:1;stroke:#000000;stroke-width:0.9496665;stroke-opacity:1"
           id="path4396"
           d="m 172.7172,218.30375 c -0.0489,0.25446 -0.0508,0.51818 -0.0534,0.7773 0.005,0.3943 -0.0573,0.77805 -0.0882,1.16959 -0.0323,0.43179 -0.0977,0.86236 -0.0971,1.29441 -0.0473,0.48514 -0.0376,0.97299 -0.0661,1.45911 -0.0767,0.48838 -0.0459,2.33252 -0.0557,0.18936 0.0438,0.4848 0.0253,0.97095 0.0396,1.45698 0.0227,0.51552 -0.004,1.03134 0.0132,1.54616 0.0264,0.50219 0.0189,1.00795 0.007,1.51147 0.0146,0.45792 0.0474,0.92665 0.0198,1.38666 0.006,0.46224 0.009,0.92295 0.0136,1.38563 0.008,0.48022 0.003,0.96103 0.002,1.44174 0.0264,0.47255 -0.002,0.94712 0.009,1.42246 -0.004,0.48429 0.004,0.96864 0.006,1.45323 -6.6e-4,1.05559 -0.0507,2.11486 -0.0201,3.17008 -0.0924,0.59728 -0.0455,1.1952 -0.0731,1.79641 -0.0164,0.8077 -0.0541,1.60962 -0.0437,2.41735 0.003,0.88048 -0.0649,1.76047 -0.0259,2.63953 -0.002,0.83349 -0.0358,1.66599 -0.0425,2.49985 0.008,0.89448 0.0164,1.78786 -0.0104,2.68245 0.0275,0.88079 0.01,1.76278 -0.035,2.64297 -0.09,0.81681 0.0104,1.65787 -0.17281,2.46477 -0.0593,0.8807 -0.12721,1.76011 -0.20511,2.63942 -0.0851,0.82439 -0.14659,1.65238 -0.17548,2.48064 -0.0531,0.76665 -0.1164,1.53416 -0.12196,2.30293 -0.0837,0.75526 -0.0326,1.51851 -0.0785,2.276 -0.0185,0.3834 -0.008,0.7671 -0.009,1.15062 -3.7e-4,0.12135 -0.007,0.48537 -0.006,0.36402 0.0219,-1.67211 0.0126,-0.84799 0.005,0.84631 -0.0122,0.72307 -0.0724,1.44407 -0.0625,2.16724 1.3e-4,0.12217 0.003,0.48866 4e-4,0.36651 -0.0483,-2.1364 -0.002,-0.14969 0.008,0.33471 -10e-4,0.65512 0.0113,1.30922 0.0158,1.96451 0.0126,0.66843 -0.0109,1.34118 0.0318,2.00835 0.0121,0.46962 0.003,0.24228 0.026,0.68204 0,0 -0.21869,1.27222 -0.21869,1.27222 l 0,0 c -0.0263,-0.41521 -0.0149,-0.2023 -0.0335,-0.63876 -0.0283,-0.65098 -0.0389,-1.29588 -0.0464,-1.94717 0.009,-0.6721 -0.008,-1.34335 -0.007,-2.01538 -0.0117,-1.10484 -0.0558,-2.21205 2.1e-4,-3.3159 -0.008,-0.76159 0.0517,-1.52132 0.0408,-2.2826 0.0693,2.89301 -0.0197,-1.64337 0.0279,-2.2501 -0.001,-0.791 0.0267,-1.58042 0.0676,-2.37023 0.0293,-0.75893 0.0638,-1.51638 0.12883,-2.27362 0.0971,-0.83921 0.0842,-1.68605 0.17071,-2.52637 0.0694,-0.82315 0.13348,-1.64718 0.23254,-2.46758 0.0203,-0.89224 0.13536,-1.78218 0.1328,-2.67647 0.0117,-0.38525 0.0461,-0.76876 0.0559,-1.15391 0.0288,-1.12406 -0.0227,0.40283 -0.0168,-0.98727 4.4e-4,-0.10295 0.0161,-0.2054 0.0241,-0.30809 -0.0142,-0.89185 0.008,-1.78265 0.0121,-2.6742 -0.003,-0.85551 0.0286,-1.7122 0.0311,-2.56688 0.0196,-0.86517 -0.025,-1.73152 0.0339,-2.59656 0.004,-0.84757 -0.0183,-1.69507 0.0235,-2.54251 0.004,-0.60469 0.0513,-1.2085 0.0717,-1.81298 0.006,-0.17558 0.0161,-0.44254 0.0174,-0.61688 8.9e-4,-0.11833 -9.9e-4,-0.47329 -0.002,-0.35498 -0.0229,2.29337 -0.003,1.08766 0.009,0.56747 0.0134,-0.48902 -0.01,-0.97667 -0.004,-1.46563 -1.8e-4,-0.47721 0.0175,-0.95368 -0.007,-1.42993 -0.0202,-0.47945 0.0302,-0.95847 -0.002,-1.43694 -0.002,-0.48186 0.009,-0.96381 -0.003,-1.44511 -0.0129,-0.45159 0.024,-0.90408 -0.025,-1.35498 -0.007,-0.50325 -0.007,-1.00462 -0.007,-1.50615 -0.013,-0.52454 -0.0163,-1.04929 -0.008,-1.57381 -0.0344,-0.50234 -0.0383,-1.00446 -0.0319,-1.5084 -0.006,-0.9737 -0.005,-1.93491 0.0204,-2.90451 0.0772,-0.19941 0.0274,-0.0373 0.0362,-0.40501 0.008,-0.32958 0.0591,-0.6576 0.0441,-0.98832 0.0248,-0.24386 0.009,-0.70243 0.0586,-0.91239 0.004,-0.0165 0.052,0.0276 0.0548,0.0109 0.0181,-0.10896 -10e-4,-0.22034 -0.002,-0.33051 0.0211,-0.41948 0.0682,-0.83638 0.0708,-1.25194 0.008,-0.0322 0.074,-0.80359 0.085,-0.54303 0,0 0.20964,1.1937 0.20964,1.1937 z"
           inkscape:connector-curvature="0" />
        <path
           style="fill:#000000;fill-opacity:1;stroke:#000000;stroke-width:0.86614668;stroke-opacity:1"
           id="path4406"
           d="m 295.6027,274.51962 c 0.0315,-0.10993 0.0152,-0.31597 0.009,-0.45675 0.0213,-0.36979 0.007,-0.73805 -0.01,-1.10888 0.0289,-0.48667 0.008,-2.24021 0.005,-0.22239 -0.0482,-0.53637 -0.014,-1.07125 -0.0643,-1.60736 -0.0216,-0.63435 -0.005,-1.27094 -0.0435,-1.9047 -0.0142,-0.6012 -0.0147,-1.20266 -0.0339,-1.80374 -0.0144,-0.61524 -0.0301,-1.22814 -0.0249,-1.84386 -0.0223,-0.98419 0.003,-1.96748 0.0535,-2.95069 0.0582,-0.69034 0.0786,-1.38126 0.0921,-2.07295 0.0643,-0.62683 0.0359,-1.25551 0.092,-1.88307 0.007,-0.64882 0.0291,-1.29729 0.043,-1.94642 -0.0418,0.71028 0.0289,-1.65678 0.0213,-0.98556 -0.0203,1.8053 -0.0204,0.44149 -0.0256,0.0615 0.0185,-0.77422 -0.0227,-1.54775 -0.009,-2.32184 -0.0217,-0.72047 -0.0109,-1.44158 -0.0303,-2.16238 -0.021,-1.13705 -0.0146,-2.27389 0.002,-3.41058 0.0415,-0.7446 0.0325,-1.48977 0.0515,-2.23483 -0.0173,-0.68387 0.0573,-1.36576 0.0448,-2.04877 0.0154,-0.6599 0.0382,-1.32069 0.0155,-1.97968 0.0362,-0.58119 0.005,-1.1633 0.0348,-1.74447 -0.0282,-0.56377 0.0152,-1.12582 0.003,-1.68985 0.0118,-0.54612 0.032,-1.0933 6.2e-4,-1.6392 0.0113,-0.54857 0.0147,-1.09706 0.0226,-1.64568 0.004,-0.58119 0.0111,-1.16278 0.008,-1.74411 0.0843,-0.53113 0.0389,-1.0622 0.0691,-1.59537 0.0442,-0.51993 0.0335,-1.04327 0.0693,-1.5644 0.0227,-0.52695 -0.0402,-1.06519 0.0452,-1.58937 0.002,1.85429 -0.0452,-0.17988 -0.0523,-0.53959 -0.0304,-0.52248 -0.0814,-1.04327 -0.0864,-1.56636 -0.015,-0.033 -0.0439,-0.0643 -0.0451,-0.0991 -0.005,-0.15107 0.0307,-0.30185 0.0264,-0.45293 -0.001,-0.0401 -0.0387,-0.076 -0.0427,-0.11591 -0.0264,-0.26187 -0.0107,-0.53079 -0.0307,-0.79402 -0.021,-0.89653 -0.0171,-1.79482 2.1e-4,-2.69233 0.0463,-0.52709 0.0673,-1.05343 0.0733,-1.58253 0.0721,-0.48983 0.0235,-0.98335 0.0783,-1.47372 0.0109,-0.69067 0.005,0.36096 4.7e-4,0.54138 -0.002,0.07 -0.01,-0.13971 -0.0106,-0.20964 -0.003,-0.25564 -0.001,-0.50794 -0.0176,-0.76348 -0.0802,-0.36445 -0.0273,-0.73419 -0.0843,-1.09942 0,0 0.23648,-1.15248 0.23648,-1.15248 l 0,0 c 0.008,0.40505 0.0688,0.80727 0.0614,1.21277 0.12728,0.51882 0.0375,1.97729 0.036,2.27051 -4.7e-4,0.0933 0.001,0.18674 0.002,0.28009 -0.0181,0.49728 -0.056,0.9937 -0.0759,1.4909 -0.002,0.55061 -0.0638,1.09801 -0.0585,1.64788 -0.0146,0.39187 0.0255,1.37847 -0.0222,-0.36444 -0.0165,-0.60145 0.0526,1.37466 0.005,0.81047 0.0554,0.48697 0.0371,0.97624 0.0898,1.4636 0.025,0.51132 0.0463,1.02241 0.0947,1.53275 0.0437,0.88275 0.0555,1.75842 0.0292,2.64495 0.005,0.54328 -0.0212,1.08702 -0.0375,1.62926 0.005,0.57007 -0.0108,1.13995 -0.0404,1.70905 -0.0518,0.52933 -0.026,1.05768 -0.0708,1.58775 -0.0749,0.56988 0.0248,1.15373 -0.008,1.72613 -0.0621,0.54044 0.0243,1.08851 -0.026,1.63064 0.0211,0.5375 0.002,1.07325 -0.007,1.61036 0.005,0.55317 0.006,1.10323 -0.0104,1.6561 0.0175,0.58748 0.006,1.17811 -0.0308,1.76456 0.0161,0.66657 3.5e-4,1.32864 -0.0126,1.9956 -0.0161,0.69609 -0.0354,1.39199 -0.037,2.08817 -0.0414,0.73578 -0.005,1.47455 -0.0567,2.21094 -0.0178,0.38923 0.0511,1.72162 -0.003,-0.002 -0.009,-0.27745 -0.009,0.55499 -0.01,0.83251 -3e-5,0.13926 -0.004,0.27851 -0.006,0.41776 -0.003,0.70118 0.0726,1.40283 0.0421,2.10464 0.004,0.75393 0.003,1.50761 0.0217,2.2614 0.006,1.07689 0.0252,2.15482 10e-4,3.23121 -0.0262,0.62146 -0.03,1.2422 -0.0613,1.86397 -0.0243,0.6401 -0.0426,1.28136 -0.0859,1.91798 0.002,0.65816 -0.0631,1.31913 -0.11291,1.97528 0.006,0.43541 -0.0389,0.86642 -0.0379,1.30066 2.8e-4,0.12616 0.0101,0.5046 0.009,0.37843 -0.001,-0.26029 -0.008,-0.52056 -0.0115,-0.78083 0.0157,0.59452 0.0188,1.18932 0.0369,1.78382 0.002,0.60563 0.0289,1.21051 0.0307,1.8161 0.0118,0.61705 0.0238,1.23535 0.0533,1.85148 -0.007,0.53198 0.0294,1.06128 0.0686,1.59207 -6.8e-4,0.86432 0.0177,1.71905 0.004,2.58002 -0.0118,0.34931 0.002,0.69839 -0.003,1.04769 -0.0649,0.17152 0.0285,0.38942 0.0144,0.56713 0,0 -0.26219,-1.24193 -0.26219,-1.24193 z"
           inkscape:connector-curvature="0" />
        <path
           style="fill:#000000;fill-opacity:1;stroke:#000000;stroke-opacity:1"
           id="path4459"
           d="m 171.83655,218.10017 c 0.54649,-0.004 -0.35482,7.2e-4 0.25852,0.005 1.15016,0.007 -2.06185,0.0445 -0.72427,-0.0104 0.10798,-0.004 0.21571,-0.0136 0.32356,-0.0205 0.70479,-0.12053 -0.47696,0.0653 0.92787,-0.0253 0.0576,-0.004 0.10024,-0.0692 0.15792,-0.0709 0.30221,-0.009 0.60393,0.0338 0.90626,0.0381 0.41416,0.006 0.82825,-0.0185 1.24245,-0.0205 0.0374,-0.0293 0.065,-0.0828 0.1122,-0.0879 0.2259,-0.0242 0.45448,0.009 0.6816,0.003 0.7507,-0.0203 1.50118,-0.005 2.25444,-0.0193 0.79651,-0.0367 1.59022,0.0453 2.38718,0.0184 0.20756,-0.007 0.41372,-0.0431 0.62138,-0.0452 0.70537,-0.007 1.41079,0.024 2.11616,0.0168 0.82553,-0.0465 1.65005,0.0644 2.47498,0.046 0.19774,-0.004 0.38992,-0.0826 0.58771,-0.0817 1.069,0.005 2.03047,0.17594 3.0803,-0.0126 2.01287,0.15246 4.02746,-0.007 6.04108,0.0651 0.74098,-0.0267 1.4844,-0.0256 2.22487,-0.0599 0.16168,-0.007 0.32102,-0.0453 0.48272,-0.0524 2.65652,-0.11739 -0.68207,0.0939 1.30962,-0.0389 0.42695,0.0277 0.85301,0.0813 1.28086,0.0831 0.0865,3.6e-4 0.1614,-0.0736 0.24782,-0.0767 0.31443,-0.0111 0.62865,0.0311 0.94327,0.0345 0.66755,0.007 1.33936,0.0179 2.00585,-0.0226 1.30737,-0.0321 2.61102,-0.0432 3.91967,-0.0215 1.06009,0.005 2.11405,-0.10824 3.17358,-0.0716 1.41607,-0.004 2.83279,-0.011 4.25014,-0.03 1.0948,0.094 2.1914,-0.005 3.28637,-0.007 1.49251,-0.002 0.38892,0.0555 1.4692,-0.0169 2.18845,0.11952 4.37708,0.0438 6.56701,0.0993 0.41321,-0.006 0.82642,-0.0127 1.23963,-0.0191 0.3169,0.0109 0.63361,0.0353 0.95069,0.0328 0.50859,-0.004 1.01631,-0.0517 1.52492,-0.0521 0.30072,-2.1e-4 0.60006,0.0468 0.90076,0.0504 3.88063,0.0463 -0.66614,-0.0942 2.39309,0.0121 1.57347,0.11271 3.15094,-0.0196 4.72538,0.0175 0.27478,0.006 0.54849,0.0366 0.82274,0.055 0.34745,0.006 0.6949,0.0122 1.04235,0.0183 0.23716,0.0229 0.47326,0.0643 0.71148,0.0685 1.29029,0.0229 2.58617,-0.0837 3.87626,-0.0753 0.26159,0.002 0.52192,0.0365 0.78288,0.0547 0.44498,-0.01 0.88996,-0.02 1.33494,-0.03 2.18228,0.16392 4.3748,0.0862 6.56109,0.0592 1.29252,0.13655 2.59399,0.0322 3.89027,0.0466 0.21422,0.002 1.34064,0.0499 1.56848,0.0592 1.87616,0.0172 3.75377,-0.0412 5.62912,0.0174 0.31913,2e-4 0.63832,-0.006 0.95737,6e-4 1.47765,0.0312 -0.0886,0.0619 1.68646,0.0289 0.96628,-0.018 1.92461,-0.0868 2.89047,-0.0407 1.55741,0.11994 3.11431,-0.004 4.6725,0.0516 0.36326,-0.0148 0.72621,-0.0465 1.08977,-0.0444 0.35572,0.002 0.70848,0.0737 1.06415,0.0804 0.74681,0.0142 1.48582,-0.0525 2.23123,0.001 1.17018,0.0485 2.34116,-0.0412 3.51105,-0.0488 0.52664,-0.003 1.05299,0.027 1.57961,0.0329 1.14023,0.0323 2.27979,0.0284 3.42018,0.004 0.34253,-0.007 0.69767,0.0648 1.02745,-0.0281 0.29529,-0.0832 -0.61356,-0.001 -0.92035,-0.002 0.60287,-0.0223 1.20609,0.013 1.80895,6.8e-4 0.21806,-0.004 0.43518,-0.038 0.65329,-0.0368 0.85387,0.005 1.66253,0.0972 2.50937,-0.027 1.24566,0.007 2.48433,-0.12463 3.72844,-0.13689 0,0 1.39435,0.215 1.39435,0.215 l 0,0 c -0.99454,0.12244 0.0794,0.0105 -1.40262,0.0567 -0.2036,0.006 -0.40551,0.0418 -0.60903,0.0502 -1.88318,0.0777 -0.0199,-0.0581 -1.51601,0.0625 -0.89312,0.0367 -1.77594,-0.004 -2.66831,0.005 -0.19673,0.002 -0.39172,0.0404 -0.58835,0.0471 -0.18529,0.006 -1.63047,0.002 -1.80041,0.001 -5.17931,0.0778 -0.67087,0.0372 -3.05215,0.0192 -0.84165,-0.006 -1.68837,0.0365 -2.52946,-0.005 -0.17914,-0.009 -0.35681,-0.037 -0.53521,-0.0555 -0.51707,0.0178 -1.57983,0.0621 -2.12584,0.0534 -0.20329,-0.003 -0.40539,-0.0404 -0.6087,-0.039 -0.87924,0.006 -1.75867,0.0819 -2.63921,0.0461 -1.50746,0.016 -3.01053,-0.0506 -4.51693,-0.0164 -0.29069,0.003 -0.58137,0.006 -0.87205,0.008 -0.18265,-0.0145 -0.36476,-0.0401 -0.54795,-0.0434 -0.64915,-0.0117 -1.29828,0.0647 -1.94724,0.0452 -0.13349,-0.004 -0.2629,-0.0472 -0.39436,-0.0708 -0.43287,0.0233 -0.86574,0.0467 -1.29861,0.07 -1.70761,-0.0748 -3.41098,-0.0368 -5.11859,-0.0546 -1.85349,-0.0902 -3.70754,0.007 -5.56048,-0.0286 -0.62665,-0.009 -1.25356,0.004 -1.88012,-0.0102 -0.24451,-0.006 -0.48796,-0.0408 -0.73253,-0.042 -0.41087,-0.002 -0.82134,0.0372 -1.23219,0.0327 -0.24029,-0.003 -0.47924,-0.0362 -0.71886,-0.0543 -0.42941,0.01 -0.85882,0.0198 -1.28823,0.0296 -1.18828,-0.0565 -2.36217,0.008 -3.5508,0.0155 -3.8469,0.025 1.09751,-0.0256 -1.72867,-0.0954 -0.43244,-0.0107 -0.86502,0.0151 -1.29753,0.0226 -1.04663,-0.0602 -0.78431,-0.0612 -1.96908,-0.0483 -0.43132,0.005 -0.86254,0.0367 -1.29377,0.0264 -0.22362,-0.005 -0.44358,-0.0639 -0.66708,-0.073 -0.3569,-0.0146 -2.0577,0.01 -2.37482,0.0135 -0.77365,-0.003 -1.54842,0.0402 -2.32094,-0.001 -0.19263,-0.0104 -0.37773,-0.0897 -0.57049,-0.0973 -1.20818,-0.0479 -2.42492,0.0993 -3.63358,-9.7e-4 -2.36447,0.0166 -4.72974,0.0413 -7.09363,-0.0112 -0.9398,-0.0218 -1.87852,0.007 -2.81803,-0.0209 -0.25086,-0.007 -0.8119,-0.0246 -1.09407,-0.0859 -0.10313,-0.0224 0.21029,0.0182 0.31543,0.0273 -0.37605,0.023 -0.7513,0.0745 -1.12804,0.0708 -0.38814,-0.004 -0.77514,-0.0461 -1.16322,-0.054 -0.24688,-0.005 -0.49377,0.0101 -0.74065,0.0151 -0.17798,0.016 -0.35525,0.0484 -0.53394,0.0479 -0.39092,-0.001 -0.78103,-0.0356 -1.17155,-0.0534 -0.84058,0.0462 -1.66575,-0.0147 -2.50625,-0.0184 -0.31429,-0.001 -0.62584,0.0758 -0.94011,0.072 -0.34271,-0.004 -0.68433,-0.0395 -1.0265,-0.0592 -1.13162,0.0105 -2.26355,0.10467 -3.39632,0.0361 -1.21135,0.0349 -2.41755,0.009 -3.62946,0.0669 -1.33624,-0.0112 -2.67405,0.0156 -4.00879,0.0549 -1.56125,-0.008 -3.12429,-0.007 -4.68306,0.0477 -2.17041,0.0798 1.11091,-0.0244 -1.84181,-0.006 -0.21502,0.001 -0.42857,0.0399 -0.64355,0.0441 -1.0488,0.0207 -2.1021,-0.008 -3.15018,-0.0377 -3.63337,-0.037 0.72464,-0.0269 -1.7811,0.0467 -1.47165,0.0433 -2.94638,-0.0834 -4.4182,-0.007 -1.08676,-0.0385 -2.1708,-0.0597 -3.25826,-0.054 -0.4021,0.002 -0.80272,0.0589 -1.20483,0.06 -0.31351,9.1e-4 -0.62646,-0.027 -0.93969,-0.0404 -0.23396,0.015 -0.66725,0.0462 -0.90017,0.047 -0.0343,1.2e-4 -1.34117,-0.031 -1.34956,-0.0304 -0.0601,0.004 -0.10334,0.0717 -0.16332,0.0775 -0.21964,0.0213 -0.44134,0.002 -0.662,0.002 -0.64956,0.12802 0.0394,0.0143 -1.07261,0.0459 -0.11993,0.003 -0.23711,0.042 -0.35704,0.0457 -0.15734,0.005 -1.07185,-0.0307 -1.27715,-0.0143 -0.0514,0.004 -0.0954,0.0391 -0.1431,0.0586 -0.61607,0.0654 0.10889,0.002 -0.79344,0.01 -2.00877,0.0166 -1.34857,0.008 -2.36462,0.0278 0,0 1.66033,-0.26297 1.66033,-0.26297 z"
           inkscape:connector-curvature="0" />
        <path
           style="fill:#000000;fill-opacity:1;stroke:#000000;stroke-opacity:1"
           id="path4459-5"
           d="m 171.74613,273.69812 c 0.54649,0.004 -0.35482,-7.2e-4 0.25852,-0.005 1.15016,-0.007 -2.06185,-0.0445 -0.72427,0.0104 0.10798,0.004 0.21571,0.0136 0.32356,0.0205 0.70479,0.12053 -0.47696,-0.0653 0.92787,0.0253 0.0576,0.004 0.10024,0.0692 0.15792,0.0709 0.30221,0.009 0.60393,-0.0338 0.90626,-0.0381 0.41416,-0.006 0.82825,0.0185 1.24245,0.0205 0.0374,0.0293 0.065,0.0828 0.1122,0.0879 0.2259,0.0242 0.45448,-0.009 0.6816,-0.003 0.7507,0.0203 1.50118,0.005 2.25444,0.0193 0.79651,0.0367 1.59022,-0.0453 2.38718,-0.0184 0.20756,0.007 0.41372,0.0431 0.62138,0.0452 0.70537,0.007 1.41079,-0.024 2.11616,-0.0168 0.82553,0.0465 1.65005,-0.0644 2.47498,-0.046 0.19774,0.004 0.38992,0.0826 0.58771,0.0817 1.069,-0.005 2.03047,-0.17594 3.0803,0.0126 2.01287,-0.15246 4.02746,0.007 6.04108,-0.0651 0.74098,0.0267 1.4844,0.0256 2.22487,0.0599 0.16168,0.007 0.32102,0.0453 0.48272,0.0524 2.65652,0.11739 -0.68207,-0.0939 1.30962,0.0389 0.42695,-0.0277 0.85301,-0.0813 1.28086,-0.0831 0.0865,-3.6e-4 0.1614,0.0736 0.24782,0.0767 0.31443,0.0111 0.62865,-0.0311 0.94327,-0.0345 0.66755,-0.007 1.33936,-0.0179 2.00585,0.0226 1.30737,0.0321 2.61102,0.0432 3.91967,0.0215 1.06009,-0.005 2.11405,0.10824 3.17358,0.0716 1.41607,0.004 2.83279,0.011 4.25014,0.03 1.0948,-0.094 2.1914,0.005 3.28637,0.007 1.49251,0.002 0.38892,-0.0555 1.4692,0.0169 2.18845,-0.11952 4.37708,-0.0438 6.56701,-0.0993 0.41321,0.006 0.82642,0.0127 1.23963,0.0191 0.3169,-0.0109 0.63361,-0.0353 0.95069,-0.0328 0.50859,0.004 1.01631,0.0517 1.52492,0.0521 0.30072,2.1e-4 0.60006,-0.0468 0.90076,-0.0504 3.88063,-0.0463 -0.66614,0.0942 2.39309,-0.0121 1.57347,-0.11271 3.15094,0.0196 4.72538,-0.0175 0.27478,-0.006 0.54849,-0.0366 0.82274,-0.055 0.34745,-0.006 0.6949,-0.0122 1.04235,-0.0183 0.23716,-0.0229 0.47326,-0.0643 0.71148,-0.0685 1.29029,-0.0229 2.58617,0.0837 3.87626,0.0753 0.26159,-0.002 0.52192,-0.0365 0.78288,-0.0547 0.44498,0.01 0.88996,0.02 1.33494,0.03 2.18228,-0.16392 4.3748,-0.0862 6.56109,-0.0592 1.29252,-0.13655 2.59399,-0.0322 3.89027,-0.0466 0.21422,-0.002 1.34064,-0.0499 1.56848,-0.0592 1.87616,-0.0172 3.75377,0.0412 5.62912,-0.0174 0.31913,-2e-4 0.63832,0.006 0.95737,-6e-4 1.47765,-0.0312 -0.0886,-0.0619 1.68646,-0.0289 0.96628,0.018 1.92461,0.0868 2.89047,0.0407 1.55741,-0.11994 3.11431,0.004 4.6725,-0.0516 0.36326,0.0148 0.72621,0.0465 1.08977,0.0444 0.35572,-0.002 0.70848,-0.0737 1.06415,-0.0804 0.74681,-0.0142 1.48582,0.0525 2.23123,-0.001 1.17018,-0.0485 2.34116,0.0412 3.51105,0.0488 0.52664,0.003 1.05299,-0.027 1.57961,-0.0329 1.14023,-0.0323 2.27979,-0.0284 3.42018,-0.004 0.34253,0.007 0.69767,-0.0648 1.02745,0.0281 0.29529,0.0832 -0.61356,10e-4 -0.92035,0.002 0.60287,0.0223 1.20609,-0.013 1.80895,-6.8e-4 0.21806,0.004 0.43518,0.038 0.65329,0.0368 0.85387,-0.005 1.66253,-0.0972 2.50937,0.027 1.24566,-0.007 2.48433,0.12463 3.72844,0.13689 0,0 1.39435,-0.215 1.39435,-0.215 l 0,0 c -0.99454,-0.12244 0.0794,-0.0105 -1.40262,-0.0567 -0.2036,-0.006 -0.40551,-0.0418 -0.60903,-0.0502 -1.88318,-0.0777 -0.0199,0.0581 -1.51601,-0.0625 -0.89312,-0.0367 -1.77594,0.004 -2.66831,-0.005 -0.19673,-0.002 -0.39172,-0.0404 -0.58835,-0.0471 -0.18529,-0.006 -1.63047,-0.002 -1.80041,-0.001 -5.17931,-0.0778 -0.67087,-0.0372 -3.05215,-0.0192 -0.84165,0.006 -1.68837,-0.0365 -2.52946,0.005 -0.17914,0.009 -0.35681,0.037 -0.53521,0.0555 -0.51707,-0.0178 -1.57983,-0.0621 -2.12584,-0.0534 -0.20329,0.003 -0.40539,0.0404 -0.6087,0.039 -0.87924,-0.006 -1.75867,-0.0819 -2.63921,-0.0461 -1.50746,-0.016 -3.01053,0.0506 -4.51693,0.0164 -0.29069,-0.003 -0.58137,-0.006 -0.87205,-0.008 -0.18265,0.0145 -0.36476,0.0401 -0.54795,0.0434 -0.64915,0.0117 -1.29828,-0.0647 -1.94724,-0.0452 -0.13349,0.004 -0.2629,0.0472 -0.39436,0.0708 -0.43287,-0.0233 -0.86574,-0.0467 -1.29861,-0.07 -1.70761,0.0748 -3.41098,0.0368 -5.11859,0.0546 -1.85349,0.0902 -3.70754,-0.007 -5.56048,0.0286 -0.62665,0.009 -1.25356,-0.004 -1.88012,0.0102 -0.24451,0.006 -0.48796,0.0408 -0.73253,0.042 -0.41087,0.002 -0.82134,-0.0372 -1.23219,-0.0327 -0.24029,0.003 -0.47924,0.0362 -0.71886,0.0543 -0.42941,-0.01 -0.85882,-0.0198 -1.28823,-0.0296 -1.18828,0.0565 -2.36217,-0.008 -3.5508,-0.0155 -3.8469,-0.025 1.09751,0.0256 -1.72867,0.0954 -0.43244,0.0107 -0.86502,-0.0151 -1.29753,-0.0226 -1.04663,0.0602 -0.78431,0.0612 -1.96908,0.0483 -0.43132,-0.005 -0.86254,-0.0367 -1.29377,-0.0264 -0.22362,0.005 -0.44358,0.0639 -0.66708,0.073 -0.3569,0.0146 -2.0577,-0.01 -2.37482,-0.0135 -0.77365,0.003 -1.54842,-0.0402 -2.32094,0.001 -0.19263,0.0104 -0.37773,0.0897 -0.57049,0.0973 -1.20818,0.0479 -2.42492,-0.0993 -3.63358,9.7e-4 -2.36447,-0.0166 -4.72974,-0.0413 -7.09363,0.0112 -0.9398,0.0218 -1.87852,-0.007 -2.81803,0.0209 -0.25086,0.007 -0.8119,0.0246 -1.09407,0.0859 -0.10313,0.0224 0.21029,-0.0182 0.31543,-0.0273 -0.37605,-0.023 -0.7513,-0.0745 -1.12804,-0.0708 -0.38814,0.004 -0.77514,0.0461 -1.16322,0.054 -0.24688,0.005 -0.49377,-0.0101 -0.74065,-0.0151 -0.17798,-0.016 -0.35525,-0.0484 -0.53394,-0.0479 -0.39092,10e-4 -0.78103,0.0356 -1.17155,0.0534 -0.84058,-0.0462 -1.66575,0.0147 -2.50625,0.0184 -0.31429,10e-4 -0.62584,-0.0758 -0.94011,-0.072 -0.34271,0.004 -0.68433,0.0395 -1.0265,0.0592 -1.13162,-0.0105 -2.26355,-0.10467 -3.39632,-0.0361 -1.21135,-0.0349 -2.41755,-0.009 -3.62946,-0.0669 -1.33624,0.0112 -2.67405,-0.0156 -4.00879,-0.0549 -1.56125,0.008 -3.12429,0.007 -4.68306,-0.0477 -2.17041,-0.0798 1.11091,0.0244 -1.84181,0.006 -0.21502,-0.001 -0.42857,-0.0399 -0.64355,-0.0441 -1.0488,-0.0207 -2.1021,0.008 -3.15018,0.0377 -3.63337,0.037 0.72464,0.0269 -1.7811,-0.0467 -1.47165,-0.0433 -2.94638,0.0834 -4.4182,0.007 -1.08676,0.0385 -2.1708,0.0597 -3.25826,0.054 -0.4021,-0.002 -0.80272,-0.0589 -1.20483,-0.06 -0.31351,-9.1e-4 -0.62646,0.027 -0.93969,0.0404 -0.23396,-0.015 -0.66725,-0.0462 -0.90017,-0.047 -0.0343,-1.2e-4 -1.34117,0.031 -1.34956,0.0304 -0.0601,-0.004 -0.10334,-0.0717 -0.16332,-0.0775 -0.21964,-0.0213 -0.44134,-0.002 -0.662,-0.002 -0.64956,-0.12802 0.0394,-0.0143 -1.07261,-0.0459 -0.11993,-0.003 -0.23711,-0.042 -0.35704,-0.0457 -0.15734,-0.005 -1.07185,0.0307 -1.27715,0.0143 -0.0514,-0.004 -0.0954,-0.0391 -0.1431,-0.0586 -0.61607,-0.0654 0.10889,-0.002 -0.79344,-0.01 -2.00877,-0.0166 -1.34857,-0.008 -2.36462,-0.0278 0,0 1.66033,0.26297 1.66033,0.26297 z"
           inkscape:connector-curvature="0" />
      </g>
    </g>
    <path
       style="fill:#000000;fill-opacity:1;stroke:#ff0000;stroke-width:0.95336246;stroke-opacity:1"
       id="path4396-5"
       d="m 296.29359,302.04521 c -0.0493,0.25446 -0.0512,0.51818 -0.0538,0.7773 0.005,0.3943 -0.0577,0.77805 -0.0889,1.16959 -0.0325,0.43179 -0.0985,0.86236 -0.0978,1.29441 -0.0477,0.48514 -0.0379,0.97299 -0.0666,1.45911 -0.0773,0.48838 -0.0463,2.33252 -0.0561,0.18936 0.0441,0.4848 0.0255,0.97095 0.0399,1.45698 0.0229,0.51552 -0.004,1.03134 0.0133,1.54616 0.0266,0.50219 0.019,1.00795 0.007,1.51147 0.0147,0.45792 0.0478,0.92665 0.02,1.38666 0.006,0.46224 0.009,0.92295 0.0137,1.38563 0.008,0.48022 0.003,0.96103 0.002,1.44174 0.0266,0.47255 -0.002,0.94712 0.009,1.42246 -0.004,0.48429 0.004,0.96864 0.006,1.45323 -6.6e-4,1.05559 -0.0511,2.11486 -0.0203,3.17008 -0.0931,0.59728 -0.0459,1.1952 -0.0737,1.79641 -0.0165,0.8077 -0.0545,1.60962 -0.044,2.41735 0.003,0.88048 -0.0654,1.76047 -0.0261,2.63953 -0.002,0.83349 -0.0361,1.66599 -0.0428,2.49985 0.008,0.89448 0.0165,1.78786 -0.0105,2.68245 0.0277,0.88079 0.0101,1.76278 -0.0353,2.64297 -0.0907,0.81681 0.0105,1.65787 -0.17416,2.46477 -0.0598,0.8807 -0.1282,1.76011 -0.20671,2.63942 -0.0858,0.82439 -0.14773,1.65238 -0.17685,2.48064 -0.0535,0.76665 -0.1173,1.53416 -0.12291,2.30293 -0.0843,0.75526 -0.0328,1.51851 -0.0791,2.276 -0.0186,0.3834 -0.008,0.7671 -0.009,1.15062 -3.7e-4,0.12135 -0.007,0.48537 -0.006,0.36402 0.0221,-1.67211 0.0127,-0.84799 0.005,0.84631 -0.0123,0.72307 -0.073,1.44407 -0.063,2.16724 1.3e-4,0.12217 0.003,0.48866 4e-4,0.36651 -0.0487,-2.1364 -0.002,-0.14969 0.008,0.33471 -0.001,0.65512 0.0114,1.30922 0.0159,1.96451 0.0127,0.66843 -0.011,1.34118 0.0321,2.00835 0.0122,0.46962 0.003,0.24228 0.0262,0.68204 0,0 -0.22039,1.27222 -0.22039,1.27222 l 0,0 c -0.0265,-0.41521 -0.015,-0.2023 -0.0338,-0.63876 -0.0285,-0.65098 -0.0392,-1.29588 -0.0468,-1.94717 0.009,-0.6721 -0.008,-1.34335 -0.007,-2.01538 -0.0118,-1.10484 -0.0562,-2.21205 2.1e-4,-3.3159 -0.008,-0.76159 0.0521,-1.52132 0.0411,-2.2826 0.0698,2.89301 -0.0198,-1.64337 0.0281,-2.2501 -10e-4,-0.791 0.0269,-1.58042 0.0681,-2.37023 0.0295,-0.75893 0.0643,-1.51638 0.12983,-2.27362 0.0979,-0.83921 0.0849,-1.68605 0.17204,-2.52637 0.0699,-0.82315 0.13452,-1.64718 0.23436,-2.46758 0.0204,-0.89224 0.13641,-1.78218 0.13383,-2.67647 0.0118,-0.38525 0.0465,-0.76876 0.0563,-1.15391 0.029,-1.12406 -0.0229,0.40283 -0.0169,-0.98727 4.4e-4,-0.10295 0.0162,-0.2054 0.0243,-0.30809 -0.0143,-0.89185 0.008,-1.78265 0.0122,-2.6742 -0.003,-0.85551 0.0288,-1.7122 0.0313,-2.56688 0.0197,-0.86517 -0.0252,-1.73152 0.0342,-2.59656 0.004,-0.84757 -0.0184,-1.69507 0.0237,-2.54251 0.004,-0.60469 0.0517,-1.2085 0.0723,-1.81298 0.006,-0.17558 0.0162,-0.44254 0.0175,-0.61688 9e-4,-0.11833 -9.9e-4,-0.47329 -0.002,-0.35498 -0.0231,2.29337 -0.003,1.08766 0.009,0.56747 0.0135,-0.48902 -0.0101,-0.97667 -0.004,-1.46563 -1.8e-4,-0.47721 0.0176,-0.95368 -0.007,-1.42993 -0.0204,-0.47945 0.0304,-0.95847 -0.002,-1.43694 -0.002,-0.48186 0.009,-0.96381 -0.003,-1.44511 -0.013,-0.45159 0.0242,-0.90408 -0.0252,-1.35498 -0.007,-0.50325 -0.007,-1.00462 -0.007,-1.50615 -0.0131,-0.52454 -0.0164,-1.04929 -0.008,-1.57381 -0.0347,-0.50234 -0.0386,-1.00446 -0.0322,-1.5084 -0.006,-0.9737 -0.005,-1.93491 0.0206,-2.90451 0.0778,-0.19941 0.0276,-0.0373 0.0365,-0.40501 0.008,-0.32958 0.0596,-0.6576 0.0445,-0.98832 0.025,-0.24386 0.009,-0.70243 0.059,-0.91239 0.004,-0.0165 0.0524,0.0276 0.0552,0.0109 0.0182,-0.10896 -0.001,-0.22034 -0.002,-0.33051 0.0213,-0.41948 0.0687,-0.83638 0.0713,-1.25194 0.008,-0.0322 0.0746,-0.80359 0.0857,-0.54303 0,0 0.21128,1.1937 0.21128,1.1937 z"
       inkscape:connector-curvature="0" />
    <path
       style="fill:#000000;fill-opacity:1;stroke:#ff0000;stroke-width:1.11506653;stroke-opacity:1"
       id="path4406-6"
       d="m 420.87749,359.13328 c 0.0523,-0.10947 0.0253,-0.31466 0.0149,-0.45486 0.0355,-0.36826 0.0116,-0.73499 -0.0167,-1.10429 0.0481,-0.48465 0.0132,-2.23094 0.008,-0.22147 -0.0803,-0.53415 -0.0233,-1.06681 -0.10701,-1.6007 -0.036,-0.63173 -0.008,-1.26569 -0.0723,-1.89682 -0.0236,-0.59871 -0.0244,-1.19769 -0.0565,-1.79628 -0.0239,-0.61269 -0.05,-1.22306 -0.0414,-1.83623 -0.0371,-0.98012 0.005,-1.95934 0.089,-2.93848 0.0969,-0.68748 0.13079,-1.37554 0.15325,-2.06437 0.10701,-0.62424 0.0598,-1.25031 0.15308,-1.87528 0.0116,-0.64613 0.0484,-1.29192 0.0715,-1.93836 -0.0695,0.70734 0.0481,-1.64993 0.0355,-0.98148 -0.0338,1.79783 -0.034,0.43966 -0.0426,0.0612 0.0309,-0.77101 -0.0378,-1.54134 -0.0149,-2.31223 -0.0362,-0.71749 -0.0182,-1.43561 -0.0504,-2.15343 -0.035,-1.13235 -0.0243,-2.26448 0.003,-3.39647 0.069,-0.74152 0.0542,-1.4836 0.0857,-2.22558 -0.0287,-0.68104 0.0953,-1.36011 0.0745,-2.04029 0.0256,-0.65717 0.0636,-1.31523 0.0258,-1.97149 0.0603,-0.57878 0.008,-1.15849 0.058,-1.73725 -0.0469,-0.56144 0.0253,-1.12116 0.005,-1.68286 0.0196,-0.54386 0.0533,-1.08877 0.001,-1.63241 0.0188,-0.5463 0.0244,-1.09252 0.0377,-1.63887 0.007,-0.57879 0.0185,-1.15797 0.0132,-1.7369 0.14037,-0.52893 0.0647,-1.0578 0.11493,-1.58877 0.0735,-0.51777 0.0558,-1.03895 0.11527,-1.55792 0.0378,-0.52477 -0.0669,-1.06078 0.0751,-1.58279 0.003,1.84661 -0.0751,-0.17914 -0.087,-0.53736 -0.0505,-0.52032 -0.13541,-1.03895 -0.14383,-1.55988 -0.0249,-0.0329 -0.073,-0.064 -0.075,-0.0987 -0.008,-0.15044 0.051,-0.3006 0.0439,-0.45106 -0.002,-0.0399 -0.0644,-0.0757 -0.071,-0.11543 -0.0439,-0.26078 -0.0178,-0.52859 -0.051,-0.79073 -0.035,-0.89282 -0.0284,-1.78739 3.7e-4,-2.68119 0.0771,-0.52491 0.11196,-1.04907 0.12203,-1.57598 0.12006,-0.4878 0.0391,-0.97928 0.1303,-1.46762 0.0182,-0.68781 0.008,0.35947 7.7e-4,0.53914 -0.003,0.0697 -0.0167,-0.13913 -0.0177,-0.20877 -0.005,-0.25459 -0.002,-0.50584 -0.0292,-0.76032 -0.13343,-0.36295 -0.0454,-0.73116 -0.14036,-1.09487 0,0 0.39357,-1.14772 0.39357,-1.14772 l 0,0 c 0.0132,0.40338 0.11444,0.80393 0.10222,1.20776 0.21182,0.51667 0.0624,1.9691 0.0599,2.26111 -7.9e-4,0.0929 0.002,0.18597 0.003,0.27893 -0.0301,0.49522 -0.0931,0.98959 -0.12633,1.48473 -0.003,0.54833 -0.10619,1.09347 -0.0974,1.64106 -0.0243,0.39025 0.0424,1.37277 -0.037,-0.36293 -0.0274,-0.59896 0.0875,1.36897 0.008,0.80712 0.0922,0.48495 0.0618,0.9722 0.14945,1.45754 0.0416,0.5092 0.0771,1.01818 0.15754,1.52641 0.0727,0.87909 0.0923,1.75114 0.0486,2.634 0.008,0.54103 -0.0353,1.08252 -0.0624,1.62252 0.008,0.56771 -0.018,1.13523 -0.0672,1.70198 -0.0862,0.52714 -0.0433,1.0533 -0.11774,1.58118 -0.12468,0.56752 0.0413,1.14895 -0.0132,1.71898 -0.10338,0.53821 0.0404,1.08401 -0.0433,1.6239 0.0352,0.53527 0.003,1.0688 -0.0116,1.60369 0.008,0.55088 0.01,1.09867 -0.0173,1.64925 0.0291,0.58505 0.01,1.17323 -0.0512,1.75726 0.0267,0.66381 5.8e-4,1.32314 -0.021,1.98734 -0.0268,0.69321 -0.059,1.38623 -0.0616,2.07953 -0.0689,0.73273 -0.008,1.46845 -0.0943,2.20179 -0.0296,0.38762 0.085,1.71449 -0.005,-0.002 -0.0149,-0.27631 -0.0149,0.55269 -0.0167,0.82906 -5e-5,0.13868 -0.007,0.27736 -0.01,0.41603 -0.005,0.69828 0.12089,1.39703 0.07,2.09593 0.007,0.75081 0.005,1.50137 0.0362,2.25204 0.01,1.07244 0.0419,2.14591 0.002,3.21784 -0.0436,0.61889 -0.0499,1.23706 -0.10206,1.85626 -0.0405,0.63745 -0.0708,1.27606 -0.143,1.91004 0.003,0.65544 -0.10503,1.31367 -0.18791,1.96711 0.01,0.43361 -0.0647,0.86283 -0.0631,1.29528 4.7e-4,0.12563 0.0168,0.50251 0.0149,0.37686 -0.002,-0.25921 -0.0132,-0.51841 -0.0192,-0.7776 0.0261,0.59206 0.0312,1.1844 0.0614,1.77644 0.003,0.60312 0.0481,1.2055 0.051,1.80858 0.0197,0.6145 0.0396,1.23024 0.0887,1.84382 -0.0116,0.52978 0.0489,1.05689 0.11411,1.58548 -0.001,0.86075 0.0294,1.71194 0.007,2.56935 -0.0196,0.34786 0.003,0.6955 -0.005,1.04335 -0.108,0.17081 0.0474,0.38781 0.0239,0.56479 0,0 -0.43634,-1.2368 -0.43634,-1.2368 z"
       inkscape:connector-curvature="0" />
    <path
       style="fill:#000000;fill-opacity:1;stroke:#ff0000;stroke-width:1.28249121;stroke-opacity:1"
       id="path4459-2"
       d="m 295.54174,303.03167 c 0.54956,-0.004 -0.35681,9.3e-4 0.25998,0.005 1.1566,0.0131 -2.07344,0.0728 -0.72833,-0.0171 0.10859,-0.004 0.21692,-0.0222 0.32537,-0.0335 0.70874,-0.19714 -0.47963,0.10683 0.93307,-0.0415 0.058,-0.004 0.10081,-0.11323 0.15881,-0.11582 0.3039,-0.0152 0.60732,0.0552 0.91135,0.0622 0.4165,0.006 0.83288,-0.0302 1.24943,-0.0335 0.0377,-0.048 0.0655,-0.1354 0.11281,-0.14373 0.22717,-0.0397 0.45703,0.0152 0.68543,0.003 0.75492,-0.0332 1.50962,-0.005 2.26711,-0.0316 0.80099,-0.06 1.59914,0.074 2.40057,0.0302 0.20872,-0.0131 0.41607,-0.0703 0.62488,-0.0739 0.70933,-0.0131 1.41868,0.0392 2.12803,0.0275 0.83018,-0.076 1.65931,0.10542 2.48888,0.0751 0.19885,-0.004 0.39212,-0.13513 0.59101,-0.13357 1.07501,0.005 2.04189,0.28776 3.09761,-0.0205 2.02416,0.24937 4.05005,-0.0131 6.07498,0.10651 0.74514,-0.0437 1.49274,-0.0419 2.23735,-0.0979 0.16262,-0.0131 0.32284,-0.074 0.48544,-0.0858 2.67144,-0.192 -0.6859,0.15358 1.31698,-0.0636 0.42934,0.0453 0.85781,0.13301 1.28805,0.13581 0.0872,6.1e-4 0.1623,-0.12049 0.24921,-0.12539 0.31619,-0.018 0.63219,0.0509 0.94856,0.0564 0.67129,0.0131 1.34687,0.0293 2.01709,-0.037 1.31474,-0.0524 2.62571,-0.0708 3.94171,-0.0352 1.06602,0.005 2.12591,-0.17706 3.19138,-0.11718 1.42401,-0.004 2.84871,-0.018 4.27402,-0.049 1.10094,0.15371 2.2037,-0.005 3.30482,-0.0131 1.50086,-0.002 0.39109,0.0907 1.47744,-0.0277 2.20073,0.19548 4.40165,0.0716 6.60386,0.16243 0.41556,-0.006 0.83109,-0.0207 1.24658,-0.0312 0.31871,0.0177 0.63716,0.0578 0.95605,0.0537 0.51143,-0.004 1.02201,-0.0846 1.53349,-0.085 0.30239,-3.6e-4 0.60343,0.0766 0.90582,0.0824 3.90241,0.0756 -0.66989,-0.15407 2.40652,0.0197 1.58231,0.18435 3.16863,-0.032 4.75191,0.0286 0.27631,0.006 0.55157,0.06 0.82736,0.09 0.34938,0.006 0.6988,0.02 1.0482,0.03 0.23847,0.0374 0.47592,0.10522 0.71547,0.11186 1.29754,0.0374 2.60069,-0.13694 3.89802,-0.12315 0.26306,0.002 0.52486,0.0595 0.7873,0.0895 0.44745,-0.0163 0.89493,-0.0327 1.34241,-0.049 2.19453,0.26813 4.39937,0.14101 6.59793,0.0967 1.29976,0.22334 2.60855,0.0526 3.91211,0.0762 0.21543,0.002 1.34816,0.0815 1.5773,0.0967 1.88667,0.0281 3.77483,-0.0674 5.66071,0.0283 0.32092,3.3e-4 0.6419,-0.006 0.96273,9.2e-4 1.48596,0.051 -0.0893,0.10129 1.69594,0.0472 0.9717,-0.0295 1.9354,-0.14192 2.9067,-0.0664 1.56615,0.19617 3.13179,-0.004 4.69873,0.0844 0.3653,-0.0242 0.73029,-0.0761 1.09589,-0.0726 0.35772,0.002 0.71246,0.12061 1.07012,0.13144 0.75099,0.0232 1.49417,-0.086 2.24376,9.3e-4 1.17675,0.0793 2.3543,-0.0673 3.53075,-0.0799 0.5296,-0.003 1.05892,0.0442 1.58849,0.0538 1.14663,0.0528 2.29257,0.0464 3.43938,0.004 0.34447,-0.0131 0.70158,0.10586 1.03323,-0.046 0.29695,-0.13595 -0.617,-9.3e-4 -0.92553,-0.002 0.60627,-0.0365 1.21287,0.0212 1.81912,9.2e-4 0.21927,-0.004 0.43762,-0.0621 0.65695,-0.0601 0.85865,0.005 1.67185,0.15897 2.52345,-0.0442 1.25268,0.0131 2.49828,-0.20384 3.74938,-0.22388 0,0 1.40218,0.35163 1.40218,0.35163 l 0,0 c -1.00014,0.20026 0.08,0.0171 -1.41051,0.0927 -0.20473,0.006 -0.40778,0.0683 -0.61243,0.0821 -1.89378,0.12713 -0.0201,-0.0951 -1.52454,0.10211 -0.89813,0.06 -1.78591,-0.004 -2.68329,0.005 -0.19782,0.002 -0.3939,0.0661 -0.59165,0.077 -0.18631,0.006 -1.63963,0.002 -1.81051,9.3e-4 -5.20839,0.12724 -0.67464,0.0608 -3.06928,0.0315 -0.84638,-0.006 -1.69786,0.0597 -2.54368,-0.005 -0.18013,-0.0152 -0.3588,-0.0603 -0.53822,-0.0908 -0.51995,0.0291 -1.5887,0.1016 -2.13775,0.0874 -0.20446,-0.003 -0.40766,-0.0662 -0.61214,-0.0639 -0.88417,0.006 -1.76852,0.13386 -2.65402,0.0753 -1.51591,0.0262 -3.02744,-0.0828 -4.54227,-0.0267 -0.29232,0.003 -0.58465,0.006 -0.87697,0.0139 -0.18367,-0.0237 -0.36679,-0.0655 -0.55102,-0.071 -0.65278,-0.0192 -1.30557,0.10575 -1.95816,0.0739 -0.13426,-0.004 -0.26437,-0.0771 -0.39657,-0.11571 -0.43531,0.0382 -0.87061,0.0762 -1.30591,0.11462 -1.7172,-0.12234 -3.43014,-0.0602 -5.14734,-0.0892 -1.86388,-0.14751 -3.72833,0.0131 -5.59167,-0.0468 -0.63018,-0.0152 -1.26062,0.004 -1.89069,-0.0167 -0.24589,-0.006 -0.4907,-0.0667 -0.73664,-0.0687 -0.41317,-0.002 -0.82596,0.0609 -1.23911,0.0534 -0.24164,-0.003 -0.48194,-0.0591 -0.7229,-0.0887 -0.4318,0.0163 -0.86365,0.0324 -1.29547,0.0484 -1.19495,-0.0923 -2.3754,0.014 -3.57071,0.0254 -3.86851,0.0409 1.10365,-0.0418 -1.73839,-0.15603 -0.43487,-0.0175 -0.86986,0.0245 -1.30481,0.037 -1.05252,-0.0983 -0.78871,-0.10006 -1.98013,-0.079 -0.43375,0.005 -0.86739,0.0601 -1.30105,0.0431 -0.22485,-0.005 -0.44605,-0.10455 -0.67082,-0.1194 -0.3589,-0.0239 -2.06923,0.0161 -2.38815,0.022 -0.77801,-0.003 -1.55711,0.0658 -2.33397,-9.3e-4 -0.19371,-0.0169 -0.37986,-0.14675 -0.5737,-0.15913 -1.21496,-0.0784 -2.43853,0.16241 -3.65397,-9.2e-4 -2.37773,0.0273 -4.75629,0.0677 -7.13345,-0.0183 -0.94508,-0.0356 -1.88907,0.0131 -2.83385,-0.0341 -0.25227,-0.0131 -0.81647,-0.0402 -1.10021,-0.14059 -0.10373,-0.0366 0.21145,0.0298 0.31719,0.0446 -0.37816,0.0377 -0.75552,0.12175 -1.13437,0.11572 -0.39033,-0.004 -0.7795,-0.0753 -1.16975,-0.0884 -0.24826,-0.005 -0.49654,0.0166 -0.74482,0.0245 -0.17896,0.0262 -0.35724,0.0791 -0.53693,0.0784 -0.3931,-9.3e-4 -0.78543,-0.0582 -1.17813,-0.0874 -0.84529,0.0755 -1.67509,-0.024 -2.52032,-0.0301 -0.31606,-9.3e-4 -0.62934,0.12384 -0.94538,0.11767 -0.34464,-0.004 -0.68818,-0.0648 -1.03228,-0.0969 -1.13797,0.0172 -2.27625,0.1712 -3.41538,0.059 -1.21815,0.057 -2.43111,0.0152 -3.64984,0.10944 -1.34376,-0.0182 -2.68905,0.0254 -4.03131,0.0897 -1.56997,-0.014 -3.14179,-0.0131 -4.70933,0.0781 -2.1826,0.13066 1.11713,-0.0399 -1.85214,-0.006 -0.21624,9.3e-4 -0.431,0.0653 -0.64716,0.0721 -1.0547,0.034 -2.11392,-0.014 -3.16787,-0.0618 -3.65378,-0.0604 0.7287,-0.0439 -1.79111,0.0764 -1.47991,0.0709 -2.96292,-0.13654 -4.44302,-0.0131 -1.09283,-0.063 -2.18296,-0.0977 -3.27654,-0.0884 -0.40435,0.002 -0.80722,0.0963 -1.21158,0.0981 -0.31528,9.3e-4 -0.62999,-0.0442 -0.94498,-0.066 -0.23527,0.0244 -0.67098,0.0753 -0.90522,0.0769 -0.0346,2.1e-4 -1.34869,-0.0505 -1.35714,-0.0498 -0.0606,0.004 -0.10392,0.11731 -0.16422,0.12685 -0.22087,0.0347 -0.44383,0.002 -0.66571,0.002 -0.65323,0.2094 0.0397,0.0234 -1.07866,0.075 -0.1206,0.003 -0.23843,0.0688 -0.35904,0.0748 -0.15821,0.005 -1.07787,-0.0502 -1.28431,-0.0234 -0.0518,0.004 -0.0962,0.0639 -0.1439,0.0959 -0.61954,0.10716 0.10949,0.002 -0.79792,0.0163 -2.02002,0.0271 -1.35613,0.014 -2.37789,0.0453 0,0 1.66966,-0.43013 1.66966,-0.43013 z"
       inkscape:connector-curvature="0" />
    <path
       style="fill:#000000;fill-opacity:1;stroke:#ff0000;stroke-width:1.28213143;stroke-opacity:1"
       id="path4459-5-9"
       d="m 295.45044,358.48959 c 0.54957,0.007 -0.35681,-0.001 0.25997,-0.008 1.15662,-0.0114 -2.07343,-0.0727 -0.72834,0.017 0.10859,0.007 0.21692,0.0222 0.32538,0.0335 0.70875,0.19703 -0.47963,-0.10674 0.93308,0.0414 0.058,0.007 0.1008,0.11312 0.15881,0.1159 0.30391,0.0147 0.60732,-0.0553 0.91135,-0.0623 0.41649,-0.01 0.8329,0.0303 1.24943,0.0335 0.0376,0.0479 0.0654,0.13535 0.11284,0.14368 0.22716,0.0396 0.45702,-0.0147 0.68542,-0.005 0.75492,0.0332 1.50961,0.008 2.2671,0.0316 0.80098,0.06 1.59915,-0.074 2.40059,-0.0301 0.20873,0.0114 0.41605,0.0705 0.62488,0.0739 0.70933,0.0114 1.41871,-0.0392 2.12804,-0.0275 0.83017,0.076 1.65932,-0.10528 2.48888,-0.0752 0.19885,0.007 0.39211,0.13503 0.59101,0.13355 1.075,-0.008 2.04188,-0.2876 3.09761,0.0206 2.02417,-0.24922 4.05008,0.0114 6.07501,-0.10642 0.74514,0.0436 1.49274,0.0418 2.23736,0.0979 0.16259,0.0114 0.32283,0.074 0.48544,0.0857 2.67143,0.19189 -0.6859,-0.1535 1.31697,0.0636 0.42935,-0.0453 0.8578,-0.1329 1.28806,-0.13584 0.087,-5.9e-4 0.1623,0.12031 0.24921,0.12538 0.31619,0.0181 0.63217,-0.0508 0.94857,-0.0564 0.67129,-0.0114 1.34688,-0.0293 2.01711,0.0369 1.31472,0.0525 2.62569,0.0706 3.94169,0.0351 1.06605,-0.008 2.12593,0.17694 3.19141,0.11704 1.42402,0.007 2.8487,0.018 4.27401,0.049 1.10094,-0.15366 2.20371,0.008 3.30483,0.0114 1.5009,0.003 0.3911,-0.0907 1.47745,0.0276 2.20074,-0.19538 4.40167,-0.0716 6.6039,-0.16232 0.41553,0.01 0.83106,0.0208 1.2466,0.0312 0.31867,-0.0178 0.63716,-0.0577 0.95602,-0.0536 0.51145,0.007 1.02202,0.0845 1.53348,0.0852 0.30242,3.4e-4 0.60343,-0.0765 0.90583,-0.0824 3.90242,-0.0757 -0.66989,0.15399 2.40653,-0.0198 1.5823,-0.18424 3.16863,0.032 4.75192,-0.0286 0.27633,-0.01 0.55157,-0.0598 0.82736,-0.0899 0.3494,-0.01 0.69881,-0.0199 1.04821,-0.0299 0.23849,-0.0374 0.47592,-0.10511 0.71548,-0.11197 1.29753,-0.0374 2.60069,0.13682 3.89803,0.12309 0.26306,-0.003 0.52485,-0.0597 0.78727,-0.0894 0.44748,0.0163 0.89496,0.0327 1.34244,0.049 2.19454,-0.26796 4.39937,-0.14091 6.59794,-0.0968 1.29978,-0.22322 2.60856,-0.0526 3.91213,-0.0762 0.21542,-0.003 1.34817,-0.0816 1.57728,-0.0968 1.88671,-0.0281 3.77486,0.0674 5.66074,-0.0284 0.32093,-3.3e-4 0.64191,0.01 0.96275,-9.9e-4 1.48596,-0.051 -0.0891,-0.10118 1.69593,-0.0472 0.97172,0.0294 1.93543,0.14189 2.90672,0.0665 1.56615,-0.19606 3.13179,0.007 4.69874,-0.0843 0.3653,0.0242 0.73029,0.076 1.09589,0.0726 0.35772,-0.003 0.71246,-0.12047 1.07012,-0.13142 0.75101,-0.0232 1.49417,0.0858 2.24377,-0.002 1.17675,-0.0793 2.35431,0.0674 3.53078,0.0798 0.52959,0.005 1.0589,-0.0441 1.58848,-0.0538 1.14663,-0.0528 2.2926,-0.0464 3.43939,-0.007 0.34445,0.0115 0.70159,-0.10592 1.03322,0.0459 0.29694,0.136 -0.61701,0.002 -0.92553,0.003 0.60627,0.0365 1.21287,-0.0213 1.81912,-10e-4 0.21928,0.007 0.43763,0.0621 0.65696,0.0601 0.85867,-0.008 1.67186,-0.15889 2.52347,0.0441 1.25265,-0.0114 2.49828,0.20373 3.74937,0.22377 0,0 1.40219,-0.35146 1.40219,-0.35146 l 0,0 c -1.00013,-0.20015 0.0798,-0.0172 -1.4105,-0.0927 -0.20475,-0.01 -0.40778,-0.0683 -0.61245,-0.0821 -1.89376,-0.12702 -0.0201,0.095 -1.52452,-0.10217 -0.89814,-0.06 -1.78592,0.007 -2.6833,-0.008 -0.19784,-0.003 -0.39393,-0.066 -0.59166,-0.077 -0.18633,-0.01 -1.63963,-0.003 -1.81052,-0.002 -5.2084,-0.12718 -0.67464,-0.0608 -3.0693,-0.0314 -0.84637,0.01 -1.69785,-0.0597 -2.54366,0.008 -0.18015,0.0147 -0.35881,0.0605 -0.53822,0.0907 -0.51998,-0.0291 -1.58871,-0.10151 -2.13778,-0.0873 -0.20443,0.005 -0.40767,0.066 -0.61212,0.0638 -0.88418,-0.01 -1.76855,-0.13388 -2.65403,-0.0754 -1.51593,-0.0262 -3.02744,0.0827 -4.54231,0.0268 -0.29232,-0.005 -0.58464,-0.01 -0.87694,-0.0131 -0.18368,0.0237 -0.36682,0.0656 -0.55104,0.071 -0.65279,0.0191 -1.30556,-0.10577 -1.95817,-0.0739 -0.13424,0.007 -0.26437,0.0772 -0.39658,0.11574 -0.43529,-0.0381 -0.8706,-0.0763 -1.30589,-0.11443 -1.71721,0.12227 -3.43015,0.0602 -5.14735,0.0892 -1.8639,0.14745 -3.72837,-0.0114 -5.59172,0.0468 -0.63017,0.0147 -1.2606,-0.007 -1.89067,0.0167 -0.24589,0.01 -0.49071,0.0667 -0.73665,0.0687 -0.41318,0.003 -0.82595,-0.0608 -1.23911,-0.0534 -0.24164,0.005 -0.48193,0.0592 -0.7229,0.0888 -0.43182,-0.0163 -0.86364,-0.0324 -1.29547,-0.0484 -1.19495,0.0924 -2.37543,-0.0131 -3.57074,-0.0253 -3.86851,-0.0409 1.10367,0.0418 -1.73838,0.15595 -0.43487,0.0175 -0.86988,-0.0247 -1.30482,-0.0369 -1.0525,0.0984 -0.78872,0.10005 -1.98014,0.079 -0.43374,-0.008 -0.86738,-0.06 -1.30104,-0.0432 -0.22487,0.008 -0.44607,0.10446 -0.67082,0.11934 -0.35891,0.0239 -2.06926,-0.0163 -2.38816,-0.0221 -0.77799,0.005 -1.55711,-0.0657 -2.33398,0.002 -0.19371,0.017 -0.37985,0.14663 -0.57369,0.15906 -1.21497,0.0783 -2.43854,-0.16233 -3.654,0.002 -2.37775,-0.0271 -4.7563,-0.0675 -7.13347,0.0183 -0.94508,0.0356 -1.88907,-0.0114 -2.83386,0.0342 -0.25226,0.0115 -0.81646,0.0402 -1.10021,0.14042 -0.10371,0.0366 0.21147,-0.0297 0.3172,-0.0446 -0.37816,-0.0376 -0.75552,-0.12179 -1.13438,-0.11574 -0.39031,0.007 -0.77949,0.0754 -1.16975,0.0883 -0.24827,0.008 -0.49655,-0.0165 -0.74481,-0.0247 -0.17898,-0.0261 -0.35724,-0.0791 -0.53694,-0.0783 -0.39312,0.002 -0.78542,0.0582 -1.17813,0.0873 -0.8453,-0.0755 -1.6751,0.024 -2.52033,0.0301 -0.31605,0.002 -0.62935,-0.12391 -0.94539,-0.1177 -0.34463,0.007 -0.68817,0.0646 -1.03227,0.0968 -1.13797,-0.0172 -2.27626,-0.17111 -3.41539,-0.059 -1.21816,-0.0571 -2.43113,-0.0147 -3.64985,-0.10936 -1.34374,0.0183 -2.68907,-0.0255 -4.0313,-0.0897 -1.57003,0.0131 -3.14185,0.0114 -4.70938,-0.078 -2.18259,-0.13045 1.11716,0.0399 -1.85215,0.01 -0.21623,-0.002 -0.43097,-0.0652 -0.64716,-0.0721 -1.0547,-0.0338 -2.11391,0.0131 -3.16788,0.0616 -3.65377,0.0605 0.72872,0.044 -1.7911,-0.0763 -1.47991,-0.0708 -2.96293,0.13633 -4.44301,0.0115 -1.09287,0.0629 -2.183,0.0976 -3.27657,0.0883 -0.40436,-0.003 -0.80722,-0.0963 -1.2116,-0.0981 -0.31526,-0.001 -0.62998,0.0441 -0.94497,0.066 -0.23527,-0.0245 -0.67099,-0.0755 -0.90522,-0.0768 -0.0345,-2e-4 -1.34871,0.0507 -1.35714,0.0497 -0.0605,-0.007 -0.10392,-0.1172 -0.16424,-0.12669 -0.22087,-0.0348 -0.44382,-0.003 -0.66572,-0.003 -0.65321,-0.20928 0.0396,-0.0234 -1.07864,-0.075 -0.1206,-0.005 -0.23843,-0.0686 -0.35904,-0.0747 -0.15823,-0.008 -1.07787,0.0502 -1.28432,0.0234 -0.0517,-0.007 -0.0959,-0.0639 -0.14391,-0.0958 -0.61953,-0.10691 0.1095,-0.003 -0.79789,-0.0163 -2.02006,-0.0271 -1.35615,-0.0131 -2.3779,-0.0455 0,0 1.66965,0.42987 1.66965,0.42987 z"
       inkscape:connector-curvature="0" />
  </g>
</svg>
